<?xml version="1.0" encoding="UTF-8"?>
<svg version="1.1" xmlns="http://www.w3.org/2000/svg" width="512" height="512">
<path d="M0 0 C1.51427582 0.00081573 1.51427582 0.00081573 3.05914307 0.00164795 C19.57458953 0.04242844 35.47683935 0.97005679 51.6875 4.375 C52.70279785 4.58398926 53.7180957 4.79297852 54.76416016 5.00830078 C91.90796555 12.90054656 126.77195445 29.00404422 156.6875 52.375 C157.65945313 53.13425781 158.63140625 53.89351562 159.6328125 54.67578125 C175.01241644 67.01013598 189.56515196 80.81104501 201.6875 96.375 C202.83412109 97.77878906 202.83412109 97.77878906 204.00390625 99.2109375 C239.33137086 143.32773921 257.21381023 199.37217784 257 255.5 C256.99726578 256.98984909 256.99726578 256.98984909 256.99447632 258.50979614 C256.94974558 272.98317811 256.57673753 287.14676256 253.6875 301.375 C253.51057617 302.27541016 253.33365234 303.17582031 253.15136719 304.10351562 C247.29513875 333.29362837 237.4960605 362.23441469 221.40234375 387.48046875 C219.98991318 391.22379568 221.92182259 395.31556279 223.18359375 398.9543457 C223.48961517 399.84184509 223.7956366 400.72934448 224.1109314 401.64373779 C224.61289536 403.0827243 224.61289536 403.0827243 225.125 404.55078125 C225.47744781 405.56851624 225.82989563 406.58625122 226.19302368 407.63482666 C226.95619869 409.83643596 227.72095799 412.03749658 228.48712158 414.23806763 C229.6966583 417.71381749 230.90025748 421.19158107 232.10302734 424.66967773 C236.20691549 436.51386267 240.37585182 448.33062579 244.6640625 460.109375 C245.45339558 462.28985975 246.24246306 464.47044067 247.03125 466.65112305 C248.52005236 470.76665353 250.03115234 474.87305108 251.5546875 478.97583008 C252.23787294 480.85986494 252.92021059 482.74420752 253.6015625 484.62890625 C253.91630524 485.45706848 254.23104797 486.28523071 254.55532837 487.13848877 C256.69423241 493.1431967 257.58372481 499.01019699 256.6875 505.375 C255.01919345 508.54293067 252.93501793 510.75124104 249.6875 512.375 C240.80990474 513.41628434 233.46128521 511.06694419 225.203125 508.0546875 C223.91194961 507.5975784 222.6202377 507.14198236 221.32803345 506.68778992 C217.89726647 505.47726075 214.4743045 504.24596474 211.05239105 503.01066971 C207.51123209 501.73700961 203.96250266 500.48480787 200.41455078 499.23022461 C187.93145685 494.80831819 175.47663916 490.3100451 163.0390625 485.76171875 C161.21842675 485.09846383 159.39778883 484.43521485 157.57714844 483.77197266 C154.3108833 482.58133406 151.05237252 481.37223809 147.79785156 480.14990234 C146.3627773 479.62167053 144.92756563 479.09381179 143.4921875 478.56640625 C141.68210205 477.88880249 141.68210205 477.88880249 139.83544922 477.19750977 C134.66061565 475.8454069 131.46090366 477.28660008 126.90625 479.78125 C125.99327148 480.27334961 125.08029297 480.76544922 124.13964844 481.27246094 C123.16543945 481.80129883 122.19123047 482.33013672 121.1875 482.875 C95.48409113 496.48363947 68.58720217 506.2227866 39.6875 510.375 C38.48939697 510.55015137 37.29129395 510.72530273 36.05688477 510.90576172 C24.33482787 512.51004338 12.69417049 512.77353399 0.875 512.75 C-0.60176712 512.74968277 -0.60176712 512.74968277 -2.10836792 512.74935913 C-18.47337212 512.71440144 -34.24366056 511.7081818 -50.3125 508.375 C-51.20501465 508.19308105 -52.0975293 508.01116211 -53.01708984 507.82373047 C-58.86046052 506.59024023 -64.5885643 505.07453467 -70.3125 503.375 C-71.67906738 502.9735376 -71.67906738 502.9735376 -73.07324219 502.56396484 C-102.99758754 493.60285297 -130.69548983 479.60657493 -155.3125 460.375 C-156.28445312 459.61574219 -157.25640625 458.85648437 -158.2578125 458.07421875 C-173.63741644 445.73986402 -188.19015196 431.93895499 -200.3125 416.375 C-201.45912109 414.97121094 -201.45912109 414.97121094 -202.62890625 413.5390625 C-228.2157721 381.58628299 -244.72551276 342.41988322 -252.3125 302.375 C-252.47621094 301.56562988 -252.63992187 300.75625977 -252.80859375 299.92236328 C-258.27819558 271.93585724 -258.15727511 238.28078161 -252.3125 210.375 C-252.11382324 209.40014648 -251.91514648 208.42529297 -251.71044922 207.42089844 C-243.56132163 168.46379559 -228.01373263 131.76373379 -203.3125 100.375 C-202.55453125 99.405625 -201.7965625 98.43625 -201.015625 97.4375 C-188.68914204 82.05125177 -174.87609226 67.49706552 -159.3125 55.375 C-158.37664062 54.61058594 -157.44078125 53.84617188 -156.4765625 53.05859375 C-126.51981568 29.0700934 -90.23166927 13.09584129 -52.875 5 C-51.22576538 4.64204346 -51.22576538 4.64204346 -49.54321289 4.27685547 C-33.01740717 0.88411602 -16.83016261 -0.03423787 0 0 Z M-154.66015625 86.91015625 C-156.76961064 88.87048868 -158.90195942 90.73554683 -161.125 92.5625 C-164.94970753 95.80937402 -168.08490415 99.54736187 -171.3125 103.375 C-172.12589844 104.30054687 -172.93929687 105.22609375 -173.77734375 106.1796875 C-185.89642085 120.04460208 -195.89526507 135.00533001 -204.3125 151.375 C-204.66795898 152.06529297 -205.02341797 152.75558594 -205.38964844 153.46679688 C-232.67782248 207.2232186 -236.9456631 270.79176354 -218.53125 328.09765625 C-208.00304321 359.08349 -191.35711991 387.96301705 -168.78515625 411.7265625 C-167.01802217 413.61932222 -165.36386778 415.49990691 -163.73046875 417.5 C-161.76206574 419.8404598 -159.88927773 421.79113157 -157.5625 423.75 C-155.49551319 425.50484516 -153.44402754 427.25181459 -151.46484375 429.10546875 C-117.23531233 461.02127439 -71.36527164 479.70296372 -25.3125 485.375 C-24.57757324 485.4692627 -23.84264648 485.56352539 -23.08544922 485.66064453 C25.94502347 491.31528333 75.16958219 478.92744265 117.69921875 454.671875 C118.37388184 454.28966797 119.04854492 453.90746094 119.74365234 453.51367188 C121.00900845 452.77244845 122.25606396 451.99874672 123.47900391 451.18945312 C127.92102291 448.33270397 131.55026131 447.78960525 136.6875 448.375 C140.20908089 449.24296543 143.58360173 450.43876935 146.9921875 451.671875 C147.97764053 452.01716751 148.96309357 452.36246002 149.97840881 452.71821594 C153.17733713 453.8421993 156.36979408 454.98347569 159.5625 456.125 C161.76334346 456.90147176 163.96459985 457.67677404 166.16625977 458.45092773 C171.65130663 460.38268684 177.13136265 462.32814205 182.60955811 464.27923584 C188.79623001 466.4817249 194.9870698 468.67244947 201.17822266 470.86230469 C204.09013413 471.89237612 206.99975659 472.92855054 209.90771484 473.96972656 C211.19758044 474.42906651 212.48745607 474.8883783 213.77734375 475.34765625 C214.87941162 475.74218994 215.98147949 476.13672363 217.11694336 476.54321289 C219.55434608 477.477622 219.55434608 477.477622 221.6875 477.375 C219.54626083 468.97659301 216.86311167 460.8367936 213.9765625 452.66796875 C213.52168075 451.3721275 213.0671284 450.07617058 212.61288452 448.78010559 C211.42469981 445.39287266 210.23191395 442.00727816 209.03814697 438.62200928 C207.83756187 435.21454498 206.6417336 431.8054124 205.4453125 428.39648438 C203.67758045 423.36271926 201.908245 418.32952315 200.13525391 413.29760742 C199.73647537 412.16410355 199.33769684 411.03059967 198.92683411 409.86274719 C198.05764668 407.41667072 197.17872311 404.97618616 196.28544617 402.53898621 C196.05559965 401.90788594 195.82575314 401.27678568 195.58894157 400.62656116 C194.94962473 398.87389781 194.30538926 397.12303087 193.6608429 395.37228394 C191.91525558 389.9969729 191.74306228 385.84017369 194.33984375 380.69140625 C195.08587662 379.43068927 195.84851174 378.17969094 196.625 376.9375 C197.45986333 375.52043153 198.29315036 374.10243342 199.125 372.68359375 C199.55296875 371.9654248 199.9809375 371.24725586 200.421875 370.50732422 C216.26862329 343.80873248 225.72496854 314.12279001 229.6875 283.375 C229.7817627 282.65618652 229.87602539 281.93737305 229.97314453 281.19677734 C236.65217774 223.61849285 219.71178168 162.63387419 184.125 116.9375 C179.70295835 111.3979749 174.9652928 106.15940859 170.1171875 100.9921875 C168.16967645 98.89438621 166.31661965 96.77190227 164.5 94.5625 C161.25312598 90.73779247 157.51513813 87.60259585 153.6875 84.375 C152.76195312 83.56160156 151.83640625 82.74820313 150.8828125 81.91015625 C137.0083447 69.78272884 122.04796275 59.82749589 105.6875 51.375 C104.95901855 50.9924707 104.23053711 50.60994141 103.47998047 50.21582031 C82.25608817 39.17807894 59.24687633 32.24718612 35.6875 28.375 C34.90632813 28.24512695 34.12515625 28.11525391 33.3203125 27.98144531 C-33.8604842 17.46234688 -105.35233045 40.6292785 -154.66015625 86.91015625 Z " fill="#000000" transform="translate(255.3125,-0.375)"/>
</svg>
