<?xml version="1.0" encoding="UTF-8"?>
<svg version="1.1" xmlns="http://www.w3.org/2000/svg" width="512" height="512">
<path d="M0 0 C4.06023112 2.73624271 8.10055395 6.12322508 9.44207764 10.99821472 C10.02746489 14.97264592 10.01105515 18.86812602 10.00097656 22.88012695 C10.0028447 23.77199203 10.00471283 24.66385712 10.00663757 25.58274841 C10.01063496 27.51700363 10.0127158 29.45126354 10.01309967 31.38552284 C10.01653306 35.51900055 10.03792709 39.65232349 10.05833054 43.78574657 C10.09620824 51.47184911 10.12762813 59.15778748 10.12548828 66.84399414 C10.12469493 72.19925047 10.14833301 77.55394011 10.1873703 82.90904808 C10.19774149 84.93608226 10.19942085 86.96318258 10.19171906 88.99022865 C10.12351773 108.94525978 13.74898213 126.87012954 27.87109375 142.06640625 C45.36157882 158.39767789 65.01150065 161.5691587 87.96875 161.39160156 C90.04004901 161.39047068 92.11134962 161.39111163 94.18264771 161.39337158 C99.75604642 161.39451027 105.32909454 161.37113899 110.90241241 161.34307575 C116.74530721 161.31791997 122.58821174 161.31570899 128.43115234 161.31097412 C139.47339487 161.29858577 150.5154773 161.2658206 161.55764961 161.22557616 C174.13816978 161.18072902 186.71869794 161.15883896 199.29927826 161.13879442 C225.15794062 161.09708401 251.0164613 161.02681311 276.875 160.9375 C276.2176738 160.28905624 275.5603476 159.64061249 274.88310242 158.97251892 C268.67847423 152.84816791 262.48360985 146.71414135 256.29941082 140.56915951 C253.12000228 137.41059097 249.93699577 134.25583709 246.74536133 131.10961914 C243.66315555 128.07099826 240.5909355 125.02259957 237.52527809 121.96728706 C236.35624435 120.80562195 235.18370581 119.6474725 234.00757408 118.49299431 C232.35579248 116.87041401 230.71712285 115.23557177 229.08081055 113.59741211 C228.14593307 112.67141708 227.2110556 111.74542206 226.24784851 110.79136658 C222.80846469 106.65475925 221.08097281 102.85991291 220.5 97.4375 C221.09382613 91.89512278 222.62908384 87.73806921 226.875 84.0625 C230.42387681 81.54871226 232.93246611 80.77568723 237.1875 80.6875 C237.92613281 80.66171875 238.66476562 80.6359375 239.42578125 80.609375 C246.78665114 81.59552025 251.36631759 87.00726364 256.32714844 92.01733398 C257.56722404 93.25193359 257.56722404 93.25193359 258.83235168 94.51147461 C261.55714072 97.22817179 264.27094214 99.95555758 266.984375 102.68359375 C268.87622034 104.57595778 270.76855226 106.46782396 272.66143799 108.35914612 C276.62408298 112.32090967 280.58071954 116.28859587 284.53369141 120.26000977 C289.10124572 124.8487513 293.67758857 129.42857886 298.25886321 134.00361961 C302.67176333 138.41082272 307.07896712 142.82367809 311.48340607 147.23933601 C313.35600504 149.11578792 315.22995892 150.99088869 317.10527802 152.86462212 C319.72196668 155.48094067 322.3320721 158.10365062 324.94042969 160.72827148 C325.71862564 161.50399002 326.49682159 162.27970856 327.29859924 163.07893372 C328.00788071 163.79529999 328.71716217 164.51166626 329.44793701 165.2497406 C330.37371111 166.178594 330.37371111 166.178594 331.31818771 167.12621212 C334.29889091 170.59413925 335.21789275 173.58852807 335.375 178.125 C335.45234375 179.44564453 335.45234375 179.44564453 335.53125 180.79296875 C333.81362571 189.02325182 326.82156128 195.42572905 321.03710938 201.14770508 C320.2753389 201.91312622 319.51356842 202.67854736 318.72871399 203.46716309 C316.23270536 205.97121499 313.72609349 208.46433328 311.21875 210.95703125 C309.4699883 212.70527374 307.7217461 214.45403602 305.97399902 216.20329285 C302.3205379 219.85666453 298.66199005 223.50483849 294.99951172 227.14916992 C290.31032673 231.815627 285.63234012 236.49312108 280.95787811 241.17432117 C277.35344181 244.78210116 273.74403164 248.38487063 270.13301086 251.98605919 C268.40614504 253.70908282 266.68061722 255.43344854 264.95646667 257.15918922 C262.54683727 259.56919022 260.13080155 261.97257909 257.71289062 264.37426758 C256.651325 265.43954933 256.651325 265.43954933 255.5683136 266.52635193 C250.0133651 272.02205606 245.25869878 276.48720884 237.1796875 277.03125 C232.59260936 276.84465699 228.7267417 275.62382557 225.30078125 272.50390625 C221.91313169 268.61150661 220.7067338 265.31497802 220.5 260.25 C220.45101562 259.44175781 220.40203125 258.63351562 220.3515625 257.80078125 C222.07771499 248.35846948 230.97520591 241.44945796 237.51953125 235 C238.65647484 233.86866135 239.79275072 232.73665132 240.9283905 231.60400391 C243.89897807 228.64479439 246.87846682 225.69471138 249.85998535 222.746521 C252.9088948 219.72846518 255.94918202 216.70175023 258.99023438 213.67578125 C264.94348005 207.75457531 270.90616976 201.84299553 276.875 195.9375 C275.25050556 195.93391747 275.25050556 195.93391747 273.59319305 195.93026257 C247.19164549 195.87136098 220.7901884 195.79541254 194.38874054 195.70178509 C181.62098519 195.65689785 168.85325728 195.61746694 156.08544922 195.59106445 C144.95172567 195.56802704 133.81808952 195.53456509 122.68443537 195.48879844 C116.7940814 195.46494359 110.90381358 195.4461642 105.01341248 195.43988609 C99.4582511 195.43380013 93.90330992 195.41367448 88.34823036 195.38322449 C86.3199193 195.37450023 84.29157939 195.3707099 82.26325035 195.37249184 C52.0290552 195.39065128 25.83298697 187.46308353 3.875 165.9375 C-17.86272296 143.73261309 -23.61340254 116.81445077 -23.55859375 86.80859375 C-23.56316391 84.60237977 -23.56847195 82.3961672 -23.57447815 80.18995667 C-23.58335531 75.5968746 -23.58104325 71.00396698 -23.57104492 66.41088867 C-23.55948828 60.52978447 -23.57989633 54.64927476 -23.60896206 48.76824856 C-23.6273 44.22575582 -23.62703763 39.68340676 -23.62132454 35.14088631 C-23.62117142 32.97158021 -23.62720756 30.80226431 -23.63961601 28.6329937 C-23.65449998 25.60837981 -23.64387219 22.58488174 -23.62670898 19.56030273 C-23.63637695 18.67036621 -23.64604492 17.78042969 -23.65600586 16.86352539 C-23.59104333 11.39399952 -22.75979217 8.2796949 -19.125 3.9375 C-13.32777392 -1.29414305 -7.39394126 -2.51394003 0 0 Z " fill="#000000" transform="translate(100.125,220.0625)"/>
<path d="M0 0 C4.2794153 2.06148178 6.4135308 5.01438206 8.21875 9.234375 C10.00317277 15.02055061 9.29639447 19.58516614 6.47668457 24.9831543 C2.8153046 30.46417493 -2.20044224 34.9333489 -6.88671875 39.53125 C-8.04772941 40.68478919 -9.20785185 41.83922298 -10.36712646 42.99450684 C-13.402957 46.01515247 -16.4506095 49.02358512 -19.50097656 52.02954102 C-22.61863067 55.10608768 -25.7248233 58.19415974 -28.83203125 61.28125 C-34.91729482 67.32376892 -41.01510987 73.35342006 -47.12109375 79.375 C-45.49659931 79.37858253 -45.49659931 79.37858253 -43.8392868 79.38223743 C-17.43773924 79.44113902 8.96371785 79.51708746 35.36516571 79.61071491 C48.13292106 79.65560215 60.90064897 79.69503306 73.66845703 79.72143555 C84.80218058 79.74447296 95.93581673 79.77793491 107.06947088 79.82370156 C112.95982485 79.84755641 118.85009267 79.8663358 124.74049377 79.87261391 C130.29565515 79.87869987 135.85059633 79.89882552 141.40567589 79.92927551 C143.43398695 79.93799977 145.46232686 79.9417901 147.4906559 79.94000816 C177.72485105 79.92184872 203.92091928 87.84941647 225.87890625 109.375 C247.61662921 131.57988691 253.36730879 158.49804923 253.3125 188.50390625 C253.31707016 190.71012023 253.3223782 192.9163328 253.3283844 195.12254333 C253.33726156 199.7156254 253.3349495 204.30853302 253.32495117 208.90161133 C253.31339453 214.78271553 253.33380258 220.66322524 253.36286831 226.54425144 C253.38120625 231.08674418 253.38094388 235.62909324 253.37523079 240.17161369 C253.37507767 242.34091979 253.38111381 244.51023569 253.39352226 246.6795063 C253.40840623 249.70412019 253.39777844 252.72761826 253.38061523 255.75219727 C253.3902832 256.64213379 253.39995117 257.53207031 253.40991211 258.44897461 C253.34494958 263.91850048 252.51369842 267.0328051 248.87890625 271.375 C244.35719056 275.45557269 241.08425977 276.70579779 234.9296875 276.58203125 C229.07480581 275.990967 225.73666548 272.49494369 222.078125 268.2890625 C219.14573775 263.608705 219.73365583 257.84076823 219.73706055 252.50830078 C219.73184891 251.18272408 219.73184891 251.18272408 219.72653198 249.83036804 C219.71919203 247.914121 219.71383728 245.99786555 219.71024132 244.08160782 C219.70304337 241.0357715 219.68734867 237.99009328 219.66889954 234.94430542 C219.61661019 226.28483344 219.56854784 217.62544651 219.55297852 208.96582031 C219.54282055 203.66249295 219.51329521 198.35956233 219.47165871 193.05639267 C219.45944922 191.04807429 219.4542088 189.0396996 219.45645714 187.03134537 C219.47431398 165.86035175 215.82500167 148.41536313 200.87890625 132.375 C184.17490031 116.54569707 164.75034636 113.75233563 142.80688477 113.92089844 C140.72588116 113.92202907 138.64487597 113.92138886 136.56387329 113.91912842 C130.95942567 113.91798875 125.35532601 113.94137623 119.75095868 113.96942425 C113.87736134 113.99456339 108.00375453 113.99678972 102.13011169 114.00152588 C91.02762922 114.01391905 79.92530578 114.04669089 68.82289308 114.08692384 C56.17468261 114.1317558 43.52646423 114.15365725 30.87819397 114.17370558 C4.8783435 114.21542695 -21.12136618 114.28570742 -47.12109375 114.375 C-46.46376755 115.02344376 -45.80644135 115.67188751 -45.12919617 116.33998108 C-38.92456798 122.46433209 -32.7297036 128.59835865 -26.54550457 134.74334049 C-23.36609603 137.90190903 -20.18308952 141.05666291 -16.99145508 144.20288086 C-13.9092493 147.24150174 -10.83702925 150.28990043 -7.77137184 153.34521294 C-6.6023381 154.50687805 -5.42979956 155.6650275 -4.25366783 156.81950569 C-2.60188623 158.44208599 -0.9632166 160.07692823 0.6730957 161.71508789 C1.60797318 162.64108292 2.54285065 163.56707794 3.50605774 164.52113342 C6.94544156 168.65774075 8.67293344 172.45258709 9.25390625 177.875 C8.66008012 183.41737722 7.12482241 187.57443079 2.87890625 191.25 C-0.66997056 193.76378774 -3.17855986 194.53681277 -7.43359375 194.625 C-8.54154297 194.66367187 -8.54154297 194.66367187 -9.671875 194.703125 C-17.03274489 193.71697975 -21.61241134 188.30523636 -26.57324219 183.29516602 C-27.39995926 182.47209961 -28.22667633 181.6490332 -29.07844543 180.80102539 C-31.80323447 178.08432821 -34.51703589 175.35694242 -37.23046875 172.62890625 C-39.12231409 170.73654222 -41.01464601 168.84467604 -42.90753174 166.95335388 C-46.87017673 162.99159033 -50.82681329 159.02390413 -54.77978516 155.05249023 C-59.34733947 150.4637487 -63.92368232 145.88392114 -68.50495696 141.30888039 C-72.91785708 136.90167728 -77.32506087 132.48882191 -81.72949982 128.07316399 C-83.60209879 126.19671208 -85.47605267 124.32161131 -87.35137177 122.44787788 C-89.96806043 119.83155933 -92.57816585 117.20884938 -95.18652344 114.58422852 C-96.35381737 113.42065071 -96.35381737 113.42065071 -97.54469299 112.23356628 C-98.25397446 111.51720001 -98.96325592 110.80083374 -99.69403076 110.0627594 C-100.61980486 109.133906 -100.61980486 109.133906 -101.56428146 108.18628788 C-104.61433287 104.63767691 -105.43047038 101.70207244 -105.49609375 97.0625 C-105.53863281 95.70705078 -105.53863281 95.70705078 -105.58203125 94.32421875 C-104.37709097 86.61464326 -98.64531804 81.46705049 -93.3425293 76.20825195 C-92.17346039 75.03129761 -92.17346039 75.03129761 -90.98077393 73.83056641 C-88.41392569 71.25056285 -85.83631652 68.68163193 -83.2578125 66.11328125 C-81.46381994 64.31726669 -79.67027283 62.52080709 -77.87715149 60.72392273 C-74.12193269 56.9642866 -70.36150159 53.20997348 -66.59692383 49.4597168 C-62.25601632 45.13513336 -57.92602147 40.7998491 -53.6015355 36.45884925 C-49.42659579 32.26861119 -45.24320195 28.08689258 -41.05622292 23.90868187 C-39.28184748 22.13630407 -37.50968791 20.36170498 -35.73981285 18.58483315 C-33.26302057 16.10040098 -30.77677681 13.62582393 -28.2878418 11.15356445 C-27.56188309 10.42153305 -26.83592438 9.68950165 -26.08796692 8.93528748 C-18.43517087 1.37694679 -11.05882489 -3.2585856 0 0 Z " fill="#000000" transform="translate(182.12109375,16.625)"/>
</svg>
